<svg width="25" height="25" viewBox="0 0 25 25" fill="none" xmlns="http://www.w3.org/2000/svg">
<path d="M14.9544 23.1239V15.2214H17.6185L18.0176 12.1283H14.9544V10.1583C14.9544 9.26482 15.2025 8.65602 16.4837 8.65602H18.1074V5.897C17.8249 5.85942 16.8557 5.77539 15.7279 5.77539C13.3731 5.77539 11.7615 7.2122 11.7615 9.85196V12.1283H9.10742V15.2214H11.7615V23.1239H14.9544Z" fill="white"/>
<path d="M7 1.25H18C21.1756 1.25 23.75 3.82436 23.75 7V18C23.75 21.1756 21.1756 23.75 18 23.75H7C3.82436 23.75 1.25 21.1756 1.25 18V7C1.25 3.82436 3.82436 1.25 7 1.25Z" stroke="white" stroke-width="2.5"/>
</svg>
