<svg width="25" height="25" viewBox="0 0 25 25" fill="none" xmlns="http://www.w3.org/2000/svg">
<path d="M18.1015 7.04604L5.29739 12.0357C4.88267 12.1973 4.90779 12.7924 5.3347 12.9185L8.58837 13.8793L9.80264 17.7323C9.92948 18.1347 10.4395 18.2568 10.7347 17.9553L12.417 16.2377L15.7176 18.6604C16.1216 18.9569 16.6968 18.7367 16.7994 18.2462L18.9855 7.79462C19.0925 7.28267 18.5889 6.85614 18.1015 7.04604ZM16.4962 9.36551L10.5488 14.6248C10.4895 14.6773 10.4518 14.7498 10.4429 14.8285L10.214 16.864C10.2065 16.9304 10.1136 16.9392 10.0938 16.8754L9.15166 13.8397C9.10851 13.7007 9.16477 13.5501 9.28842 13.4735L16.3117 9.11754C16.4732 9.01729 16.6386 9.23963 16.4962 9.36551Z" fill="white"/>
<path d="M7 1.25H18C21.1756 1.25 23.75 3.82436 23.75 7V18C23.75 21.1756 21.1756 23.75 18 23.75H7C3.82436 23.75 1.25 21.1756 1.25 18V7C1.25 3.82436 3.82436 1.25 7 1.25Z" stroke="white" stroke-width="2.5"/>
</svg>
