<svg width="100" height="94" viewBox="0 0 100 94" fill="none" xmlns="http://www.w3.org/2000/svg">
<path d="M85.3555 14.6445C75.9115 5.20078 63.3555 0 50 0C36.6445 0 24.0885 5.20078 14.6445 14.6445C5.20059 24.0883 0 36.6445 0 50C0 63.3555 5.20078 75.9115 14.6445 85.3555C24.0883 94.7994 36.6445 100 50 100C63.3555 100 75.9115 94.7992 85.3555 85.3555C94.7994 75.9117 100 63.3555 100 50C100 36.6445 94.7992 24.0885 85.3555 14.6445ZM83.1457 83.1457C74.2922 91.9992 62.5207 96.875 50 96.875C37.4793 96.875 25.7078 91.9992 16.8543 83.1457C8.00078 74.2922 3.125 62.5207 3.125 50C3.125 37.4793 8.00078 25.7078 16.8543 16.8543C25.7078 8.00078 37.4793 3.125 50 3.125C62.5207 3.125 74.2922 8.00078 83.1457 16.8543C91.9992 25.7078 96.875 37.4793 96.875 50C96.875 62.5207 91.9992 74.2922 83.1457 83.1457Z" fill="black"/>
<path d="M9.375 50C9.375 27.5994 27.5994 9.375 50 9.375C58.0797 9.375 65.884 11.7404 72.5693 16.2156C73.2863 16.6957 74.2568 16.5035 74.7369 15.7863C75.217 15.0693 75.0248 14.0988 74.3076 13.6187C67.1062 8.79805 58.7008 6.25 50 6.25C38.3139 6.25 27.3273 10.8008 19.0641 19.0641C10.8008 27.3273 6.25 38.3139 6.25 50C6.25 60.7813 10.2059 71.1391 17.3891 79.1656C17.6977 79.5105 18.125 79.6861 18.5539 79.6861C18.9248 79.6861 19.2973 79.5549 19.5953 79.2879C20.2383 78.7123 20.2932 77.7246 19.7176 77.0816C13.0482 69.6289 9.375 60.0111 9.375 50Z" fill="black"/>
<path d="M86.3815 25.6928C85.9014 24.9756 84.9309 24.7834 84.2139 25.2635C83.4969 25.7435 83.3046 26.7141 83.7846 27.431C88.2596 34.1162 90.6251 41.9205 90.6251 50C90.6251 72.4006 72.4007 90.625 50.0001 90.625C40.7065 90.625 31.6219 87.4064 24.4202 81.5623C23.7501 81.0185 22.7661 81.1209 22.2223 81.791C21.6786 82.4611 21.7809 83.4451 22.451 83.9889C30.2079 90.2834 39.9917 93.75 50.0001 93.75C61.6862 93.75 72.6727 89.1992 80.936 80.9359C89.1993 72.6726 93.7501 61.6861 93.7501 50C93.7501 41.2994 91.202 32.8939 86.3815 25.6928Z" fill="black"/>
<path d="M77.0815 19.7178C78.1321 20.6578 79.145 21.6639 80.0921 22.7076C80.4005 23.0475 80.8243 23.2201 81.2497 23.2201C81.6241 23.2201 82.0001 23.0861 82.2993 22.8147C82.9382 22.2348 82.9862 21.2465 82.4063 20.6074C81.3868 19.484 80.2964 18.4012 79.1655 17.3891C78.5225 16.8137 77.5347 16.8684 76.9593 17.5113C76.3839 18.1543 76.4384 19.1422 77.0815 19.7178Z" fill="black"/>
<path d="M50 20.3125C50.8629 20.3125 51.5625 19.6129 51.5625 18.75V14.0625C51.5625 13.1996 50.8629 12.5 50 12.5C49.1371 12.5 48.4375 13.1996 48.4375 14.0625V18.75C48.4375 19.6129 49.1371 20.3125 50 20.3125Z" fill="black"/>
<path d="M48.4375 81.25V85.9375C48.4375 86.8004 49.1371 87.5 50 87.5C50.8629 87.5 51.5625 86.8004 51.5625 85.9375V81.25C51.5625 80.3871 50.8629 79.6875 50 79.6875C49.1371 79.6875 48.4375 80.3871 48.4375 81.25Z" fill="black"/>
<path d="M20.3125 50C20.3125 49.1371 19.6129 48.4375 18.75 48.4375H14.0625C13.1996 48.4375 12.5 49.1371 12.5 50C12.5 50.8629 13.1996 51.5625 14.0625 51.5625H18.75C19.6129 51.5625 20.3125 50.8629 20.3125 50Z" fill="black"/>
<path d="M79.6875 50C79.6875 50.8629 80.3871 51.5625 81.25 51.5625H85.9375C86.8004 51.5625 87.5 50.8629 87.5 50C87.5 49.1371 86.8004 48.4375 85.9375 48.4375H81.25C80.3871 48.4375 79.6875 49.1371 79.6875 50Z" fill="black"/>
<path d="M35.7281 22.1555L33.3843 18.0959C32.9529 17.3485 31.9972 17.0928 31.25 17.524C30.5027 17.9555 30.2466 18.9112 30.6781 19.6584L33.0218 23.718C33.3113 24.2192 33.8365 24.4994 34.3765 24.4994C34.6416 24.4994 34.9103 24.4319 35.1564 24.2899C35.9035 23.8584 36.1595 22.9028 35.7281 22.1555Z" fill="black"/>
<path d="M66.9781 76.282C66.5466 75.5347 65.5908 75.2791 64.8437 75.7101C64.0964 76.1416 63.8404 77.0972 64.2718 77.8445L66.6156 81.9041C66.905 82.4053 67.4302 82.6855 67.9703 82.6855C68.2353 82.6855 68.5041 82.618 68.7502 82.476C69.4974 82.0445 69.7535 81.0889 69.322 80.3416L66.9781 76.282Z" fill="black"/>
<path d="M18.8788 69.5314C19.1438 69.5314 19.4126 69.4638 19.6587 69.3219L23.7182 66.9781C24.4655 66.5467 24.7215 65.591 24.2901 64.8437C23.8587 64.0965 22.9028 63.8408 22.1557 64.2718L18.0962 66.6156C17.3489 67.047 17.0928 68.0027 17.5243 68.75C17.8135 69.2512 18.3387 69.5314 18.8788 69.5314Z" fill="black"/>
<path d="M77.0646 35.9377C77.3296 35.9377 77.5984 35.8701 77.8444 35.7281L81.904 33.3843C82.6513 32.9529 82.9073 31.9972 82.4759 31.25C82.0444 30.5027 81.0888 30.247 80.3415 30.6781L76.2819 33.0218C75.5347 33.4533 75.2786 34.409 75.7101 35.1562C75.9995 35.6574 76.5247 35.9377 77.0646 35.9377Z" fill="black"/>
<path d="M68.75 17.524C68.0027 17.0924 67.047 17.3485 66.6156 18.0959L64.2718 22.1555C63.8404 22.9027 64.0964 23.8584 64.8437 24.2899C65.0898 24.432 65.3584 24.4994 65.6236 24.4994C66.1636 24.4994 66.6888 24.2192 66.9783 23.718L69.322 19.6584C69.7533 18.9111 69.4972 17.9555 68.75 17.524Z" fill="black"/>
<path d="M35.1562 75.7101C34.4089 75.2787 33.4533 75.5347 33.0218 76.282L30.6781 80.3416C30.2466 81.0888 30.5027 82.0445 31.25 82.4759C31.4961 82.6181 31.7646 82.6855 32.0298 82.6855C32.5699 82.6855 33.0951 82.4052 33.3845 81.9041L35.7283 77.8445C36.1595 77.0972 35.9035 76.1416 35.1562 75.7101Z" fill="black"/>
<path d="M76.2821 66.9781L80.3417 69.3219C80.5878 69.4641 80.8563 69.5314 81.1216 69.5314C81.6616 69.5314 82.1868 69.2512 82.4763 68.75C82.9077 68.0027 82.6517 67.0471 81.9044 66.6156L77.8448 64.2719C77.0976 63.8402 76.1419 64.0965 75.7104 64.8437C75.2788 65.591 75.5349 66.5467 76.2821 66.9781Z" fill="black"/>
<path d="M23.718 33.0219L19.6584 30.6781C18.9111 30.2465 17.9555 30.5027 17.524 31.25C17.0926 31.9973 17.3486 32.9529 18.0959 33.3844L22.1555 35.7281C22.4016 35.8703 22.6701 35.9377 22.9354 35.9377C23.4754 35.9377 24.0006 35.6574 24.29 35.1562C24.7213 34.409 24.4652 33.4533 23.718 33.0219Z" fill="black"/>
<path d="M60.8773 70.4006C61.1424 70.4006 61.4111 70.333 61.6572 70.191C62.4045 69.7596 62.6606 68.8039 62.2291 68.0566L53.5611 53.0432C54.2625 52.2234 54.6875 51.1607 54.6875 50C54.6875 47.9631 53.3811 46.2262 51.5625 45.5812V25C51.5625 24.1371 50.8629 23.4375 50 23.4375C49.1371 23.4375 48.4375 24.1371 48.4375 25V45.5812C46.6189 46.2262 45.3125 47.9631 45.3125 50C45.3125 52.5848 47.4152 54.6875 50 54.6875C50.2924 54.6875 50.5783 54.6592 50.8561 54.6078L59.5229 69.6191C59.8123 70.1203 60.3375 70.4006 60.8773 70.4006ZM48.4375 50C48.4375 49.1385 49.1385 48.4375 50 48.4375C50.8615 48.4375 51.5625 49.1385 51.5625 50C51.5625 50.8615 50.8615 51.5625 50 51.5625C49.1385 51.5625 48.4375 50.8615 48.4375 50Z" fill="black"/>
</svg>
