<svg width="90" height="90" viewBox="0 0 90 90" fill="none" xmlns="http://www.w3.org/2000/svg">
<path d="M45.4875 31.9053H11.7403C11.0122 31.9053 10.4221 32.4956 10.4221 33.2235C10.4221 33.9516 11.0122 34.5417 11.7403 34.5417H45.4877C46.2157 34.5417 46.8058 33.9514 46.8058 33.2235C46.8058 32.4956 46.2157 31.9053 45.4875 31.9053Z" fill="black"/>
<path d="M45.4875 41.1683H11.7403C11.0122 41.1683 10.4221 41.7585 10.4221 42.4865C10.4221 43.2144 11.0122 43.8046 11.7403 43.8046H45.4877C46.2157 43.8046 46.8058 43.2144 46.8058 42.4865C46.8058 41.7585 46.2157 41.1683 45.4875 41.1683Z" fill="black"/>
<path d="M45.4875 50.4312H11.7403C11.0122 50.4312 10.4221 51.0214 10.4221 51.7493C10.4221 52.4772 11.0122 53.0675 11.7403 53.0675H45.4877C46.2157 53.0675 46.8058 52.4772 46.8058 51.7493C46.8058 51.0214 46.2157 50.4312 45.4875 50.4312Z" fill="black"/>
<path d="M46.8058 61.0125C46.8058 60.2844 46.2157 59.6943 45.4877 59.6943H11.7403C11.0122 59.6943 10.4221 60.2845 10.4221 61.0125C10.4221 61.7404 11.0122 62.3306 11.7403 62.3306H45.4877C46.2157 62.3306 46.8058 61.7405 46.8058 61.0125Z" fill="black"/>
<path d="M11.7403 73.2693C11.0122 73.2693 10.4221 73.8596 10.4221 74.5875C10.4221 75.3154 11.0122 75.9057 11.7403 75.9057H28.6571C29.3852 75.9057 29.9753 75.3154 29.9753 74.5875C29.9753 73.8596 29.3852 73.2693 28.6571 73.2693H11.7403Z" fill="black"/>
<path d="M60.6787 16.3218V12.0443C60.6787 10.4149 59.3531 9.08911 57.7234 9.08911H30.6589C29.0294 9.08911 27.7039 10.4149 27.7039 12.0443V16.3218C27.7039 17.9513 29.0294 19.2769 30.6589 19.2769H32.9444C33.6725 19.2769 34.2626 18.6866 34.2626 17.9587C34.2626 17.2306 33.6725 16.6405 32.9444 16.6405H30.6589C30.4833 16.6405 30.3404 16.4976 30.3404 16.322V12.0443C30.3404 11.8687 30.4833 11.7257 30.6589 11.7257H57.7234C57.8992 11.7257 58.0421 11.8686 58.0421 12.0443V16.3218C58.0421 16.4974 57.8992 16.6403 57.7234 16.6403H39.1073C38.3792 16.6403 37.7891 17.2306 37.7891 17.9585C37.7891 18.6866 38.3792 19.2767 39.1073 19.2767H57.7236C59.3531 19.277 60.6787 17.9513 60.6787 16.3218Z" fill="black"/>
<path d="M70.5355 80.3841C69.8074 80.3841 69.2173 80.9743 69.2173 81.7022V83.4775C69.2173 85.6201 67.4741 87.3635 65.3311 87.3635H7.01357C4.87098 87.3635 3.12758 85.6202 3.12758 83.4775V20.1143C3.12758 19.829 3.16098 19.5492 3.22057 19.2769H15.2234C17.7294 19.2769 19.7681 17.2382 19.7681 14.7322V2.72953C20.0404 2.66994 20.32 2.63654 20.6053 2.63654H65.3309C67.4737 2.63654 69.2171 4.37977 69.2171 6.52254V24.0729C69.2171 24.801 69.8072 25.3911 70.5353 25.3911C71.2634 25.3911 71.8535 24.8008 71.8535 24.0729V6.52236C71.8536 2.92605 68.9276 0 65.3311 0H20.6055C18.8633 0 17.2252 0.678516 15.9934 1.91039L2.40143 15.5023C1.16955 16.7342 0.491211 18.3721 0.491211 20.1145V83.4776C0.491211 87.0741 3.41709 90 7.01357 90H65.3311C68.9276 90 71.8537 87.0739 71.8537 83.4776V81.7024C71.8537 80.9743 71.2636 80.3841 70.5355 80.3841ZM17.1317 4.5007V14.7322C17.1317 15.7845 16.2757 16.6405 15.2234 16.6405H4.99191L17.1317 4.5007Z" fill="black"/>
<path d="M88.5907 47.1092C89.516 45.7509 89.7554 44.0756 89.2476 42.5125C88.7398 40.9495 87.5612 39.7348 86.0143 39.18C84.9881 38.812 84.3034 37.8698 84.2707 36.7799C84.221 35.1373 83.4298 33.641 82.1 32.6749C80.7706 31.709 79.1028 31.4191 77.5256 31.8793C76.4783 32.1848 75.3714 31.8248 74.7042 30.9626C73.6985 29.6627 72.1791 28.9172 70.5355 28.9172C68.8921 28.9172 67.3725 29.6627 66.3667 30.9626C65.6994 31.825 64.5918 32.1845 63.5454 31.8793C61.9681 31.4188 60.3005 31.709 58.9707 32.6749C57.6411 33.641 56.8503 35.1371 56.8003 36.7798C56.7675 37.8696 56.083 38.8116 55.0566 39.1799C53.5097 39.7346 52.3311 40.9495 51.8234 42.5123C51.3156 44.0754 51.555 45.7509 52.4803 47.109C53.0942 48.0102 53.0942 49.1746 52.4803 50.0757C51.555 51.4339 51.3156 53.1093 51.8234 54.6724C52.3311 56.2354 53.5097 57.45 55.0566 58.005C56.083 58.3733 56.7676 59.3153 56.8003 60.4051C56.8462 61.9161 57.5386 63.3359 58.7005 64.3001C59.4671 64.9364 60.388 65.3345 61.3518 65.4676V77.4696C61.3518 78.4823 61.9012 79.4183 62.7852 79.9121C63.6681 80.4055 64.7536 80.3835 65.6165 79.8521L70.4513 76.8758C70.5301 76.8271 70.577 76.8491 70.6204 76.8758L75.4549 79.8521C76.3175 80.383 77.4026 80.4058 78.2864 79.9119C79.1706 79.418 79.7197 78.4819 79.7197 77.4694V65.4673C80.6832 65.3344 81.6041 64.9362 82.3707 64.3001C83.5328 63.3359 84.2254 61.9163 84.2712 60.4049C84.3039 59.3151 84.9886 58.3729 86.0148 58.0048C87.5619 57.45 88.7405 56.2352 89.2481 54.6722C89.756 53.1091 89.5166 51.4338 88.5912 50.0755C87.9767 49.1748 87.9767 48.0104 88.5907 47.1092V47.1092ZM76.8368 77.6071L72.0021 74.6307C71.1033 74.0776 69.9685 74.0767 69.0688 74.6307L64.2341 77.6069C64.1241 77.6739 63.9882 77.5967 63.9882 77.4694V65.2173C64.8945 65.1124 65.7931 65.4811 66.3667 66.2224C67.3727 67.5221 68.8921 68.2676 70.5357 68.2676C72.1791 68.2676 73.6985 67.5221 74.7042 66.2224C75.2779 65.481 76.1767 65.1124 77.0829 65.2173V77.4694C77.0829 77.5976 76.9452 77.674 76.8368 77.6071V77.6071ZM86.4119 51.5605C86.8746 52.2394 86.9941 53.0766 86.7403 53.8578C86.4864 54.639 85.8974 55.2461 85.1241 55.5235C83.0707 56.26 81.7013 58.1449 81.6354 60.3255C81.612 61.0921 81.2751 61.7831 80.6867 62.2714C80.0253 62.8203 79.1295 63.0274 78.2643 62.775C76.1702 62.164 73.9541 62.884 72.6189 64.6091C72.1163 65.2586 71.3568 65.6313 70.5353 65.6313C69.7141 65.6313 68.9545 65.2588 68.4516 64.6091C67.4323 63.2914 65.8993 62.5602 64.2992 62.5602C63.8038 62.5602 63.3018 62.6303 62.8068 62.7748C61.9331 63.0293 61.04 62.8159 60.3838 62.2712C59.7955 61.7829 59.4585 61.0919 59.4355 60.3255C59.3694 58.1449 58 56.26 55.9464 55.5233C55.1733 55.2459 54.5844 54.639 54.3304 53.8578C54.0766 53.0766 54.1961 52.2392 54.6588 51.5603C55.887 49.7573 55.887 47.4277 54.6588 45.6247C54.1961 44.9458 54.0766 44.1084 54.3304 43.3271C54.5843 42.5459 55.1733 41.9388 55.9464 41.6616C58 40.9249 59.3694 39.0399 59.4355 36.8594C59.4603 36.0383 59.8554 35.2905 60.52 34.8078C61.1843 34.325 62.0175 34.1801 62.8066 34.41C64.9002 35.0212 67.1168 34.3011 68.4516 32.5759C68.9544 31.9263 69.7137 31.5536 70.5353 31.5536C71.3568 31.5536 72.1161 31.9261 72.6189 32.5758C73.9539 34.3011 76.1695 35.0211 78.2641 34.41C79.0527 34.1798 79.8859 34.3248 80.5505 34.8077C81.2151 35.2904 81.6106 36.0383 81.6352 36.8592C81.7013 39.0398 83.0707 40.9249 85.1241 41.6614C85.8974 41.9386 86.4863 42.5457 86.7403 43.3269C86.9941 44.1081 86.8746 44.9457 86.4119 45.6244C85.1834 47.4275 85.1834 49.7575 86.4119 51.5605V51.5605Z" fill="black"/>
<path d="M70.5355 37.5439C64.4433 37.5439 59.4869 42.5002 59.4869 48.5924C59.4869 54.6847 64.4433 59.641 70.5355 59.641C76.6275 59.641 81.5839 54.6847 81.5839 48.5924C81.5839 42.5002 76.6275 37.5439 70.5355 37.5439V37.5439ZM70.5355 57.0046C65.897 57.0046 62.1233 53.2309 62.1233 48.5926C62.1233 43.9543 65.897 40.1804 70.5355 40.1804C75.174 40.1804 78.9475 43.9541 78.9475 48.5926C78.9475 53.2311 75.1738 57.0046 70.5355 57.0046Z" fill="black"/>
</svg>
