<svg width="100" height="100" viewBox="0 0 100 100" fill="none" xmlns="http://www.w3.org/2000/svg">
<g clip-path="url(#clip0)">
<path d="M68.1402 22.1432V27.0686C68.1402 27.9705 68.6787 28.7762 69.5117 29.1213C70.3568 29.4713 71.3047 29.2682 71.9334 28.6396L78.1174 22.4555H93.7309C96.9068 22.4555 99.4904 19.8717 99.4904 16.6959V5.75957C99.4904 2.58379 96.9068 0 93.7309 0H70.0115C66.8355 0 64.252 2.58379 64.252 5.75957V16.6957C64.2518 19.1654 65.8504 21.3545 68.1402 22.1432ZM67.1803 5.75957C67.1803 4.19844 68.4504 2.92832 70.0115 2.92832H93.7311C95.2922 2.92832 96.5623 4.19844 96.5623 5.75957V16.6957C96.5623 18.2568 95.2922 19.527 93.7311 19.527H77.7705C77.2127 19.527 76.6881 19.7441 76.2924 20.1389L71.0688 25.3627V21.5068C71.0688 20.525 70.3766 19.6664 69.4227 19.4652C68.1234 19.1912 67.1805 18.0264 67.1805 16.6959V5.75957H67.1803Z" fill="black"/>
<path d="M96.0903 85.941H93.3055V39.8859C93.3055 36.8508 90.8364 34.3816 87.8012 34.3816H60.4059C59.5971 34.3816 58.9417 35.0371 58.9417 35.8459C58.9417 36.6547 59.5971 37.3101 60.4059 37.3101H87.801C89.2213 37.3101 90.377 38.4656 90.377 39.8861V85.9412H85.4963V46.3371C85.4963 44.051 83.6364 42.191 81.3502 42.191H51.4397C51.8694 41.0732 52.1661 39.8885 52.302 38.6535C53.8575 38.3107 55.0249 36.9213 55.0249 35.264C55.0249 33.9248 55.0249 23.8117 55.0249 22.6064C55.0249 19.7131 52.6834 17.3562 49.7958 17.3316C49.7022 14.5045 47.3731 12.2336 44.5237 12.2336H31.3917C25.7483 12.2336 21.1571 16.8248 21.1571 22.4682V35.264C21.1571 36.9213 22.3245 38.3107 23.8801 38.6535C24.0161 39.8887 24.3127 41.0732 24.7424 42.191H18.6499C16.3637 42.191 14.5038 44.051 14.5038 46.3371V58.2978C12.5854 59.018 10.9188 60.2113 9.6231 61.718V39.8859C9.6231 38.4656 10.7786 37.3099 12.1991 37.3099H15.8502C16.659 37.3099 17.3145 36.6545 17.3145 35.8457C17.3145 35.0369 16.659 34.3814 15.8502 34.3814H12.1991C9.16392 34.3814 6.69478 36.8506 6.69478 39.8857V69.5537V85.9408H3.90981C1.76587 85.9408 0.0217285 87.6852 0.0217285 89.8289C0.0217285 95.4375 4.58423 100 10.1924 100H89.8077C95.4159 100 99.9784 95.4375 99.9784 89.8293C99.9784 87.6853 98.234 85.941 96.0903 85.941ZM81.3502 45.1193C82.0217 45.1193 82.568 45.6656 82.568 46.3371V85.9412H69.4928V80.5763C69.4928 79.7676 68.8374 79.1121 68.0286 79.1121C67.2198 79.1121 66.5643 79.7676 66.5643 80.5763V85.9412H59.5346V81.2949C59.5346 80.4861 58.8792 79.8307 58.0704 79.8307C57.2616 79.8307 56.6061 80.4861 56.6061 81.2949V85.9412H44.6959L41.5391 68.1402L42.7504 65.9697C42.9842 66.0209 43.2215 66.0496 43.4594 66.0496C44.2956 66.0496 45.1311 65.7342 45.7831 65.1078L51.2186 59.8146C51.6081 59.4355 51.8792 58.9742 52.0338 58.4812L60.0336 60.8297C63.879 61.9586 66.5645 65.5461 66.5645 69.5535V73.7312C66.5645 74.54 67.22 75.1955 68.0288 75.1955C68.8376 75.1955 69.493 74.54 69.493 73.7312V69.5535C69.493 64.2553 65.9424 59.5125 60.8586 58.0197L51.1959 55.183C50.9299 54.9289 50.6219 54.7201 50.2836 54.5695L48.2836 53.6785C47.6944 53.4158 47.0631 53.309 46.4434 53.349V48.668C47.7903 47.6953 48.9627 46.4945 49.9028 45.1195H81.3502V45.1193ZM27.1561 57.2264L29.1178 56.3455C29.4401 56.201 29.8159 56.2424 30.0989 56.4539L35.8778 60.7719L33.0393 63.1428C32.8784 63.2777 32.6442 63.2699 32.4924 63.1262L27.0698 57.6953V57.6951C26.9239 57.5494 26.9772 57.3066 27.1561 57.2264ZM43.5147 50.2994V54.7709L38.2227 58.8687L32.6676 54.718V50.2996C36.0973 51.7125 39.9881 51.7523 43.5147 50.2994ZM49.0917 57.2445C49.2717 57.3242 49.3256 57.5703 49.1756 57.7166L43.7473 63.0025C43.5936 63.1504 43.3559 63.1572 43.194 63.0187C43.1938 63.0187 43.1938 63.0187 43.1938 63.0187L40.5573 60.7642L46.1 56.4725C46.3834 56.2525 46.7635 56.207 47.0915 56.3531L49.0917 57.2445ZM37.0225 66.4181L35.9309 64.5433L38.2272 62.6252L40.2827 64.3828L39.1469 66.4181H37.0225ZM37.4083 69.3465H38.779L41.7219 85.941H34.4668L37.4083 69.3465ZM63.0446 88.8695C62.4534 90.409 60.9633 91.5064 59.2184 91.5064H40.7815C39.0366 91.5064 37.5465 90.409 36.9553 88.8695H63.0446ZM24.0856 22.4682C24.0856 18.4394 27.3631 15.1619 31.3918 15.1619H44.5239C45.8178 15.1619 46.8704 16.2144 46.8704 17.5084C46.8704 19.0254 48.1047 20.2598 49.6217 20.2598H49.75C51.044 20.2598 52.0965 21.3123 52.0965 22.6062V29.4635H50.9276C50.2729 29.4635 49.7403 28.9308 49.7403 28.2762V26.825C49.7403 23.9166 46.901 21.8644 44.1389 22.7769C40.2403 24.0654 35.9463 24.0658 32.0477 22.7779C32.0432 22.7764 32.0372 22.7744 32.0313 22.7726C29.2766 21.8713 26.442 23.9164 26.442 26.8246V28.2764C26.442 28.931 25.9094 29.4637 25.2545 29.4637H24.0856V22.4682ZM24.0856 35.264V32.392H25.2545C27.5241 32.392 29.3706 30.5457 29.3706 28.2762V26.8244C29.3706 25.9131 30.2614 25.2709 31.1241 25.5568C31.1284 25.5584 31.134 25.5601 31.1395 25.5617C35.628 27.042 40.5709 27.0406 45.0579 25.5574C45.9204 25.2717 46.8118 25.9125 46.8118 26.825V28.2762C46.8118 30.5457 48.6581 32.392 50.9276 32.392H52.0965V35.264C52.0965 35.5631 51.8534 35.806 51.5547 35.806C50.4383 35.806 49.5081 36.682 49.4372 37.8008C49.0608 43.7697 44.0772 48.4455 38.0913 48.4455C32.1053 48.4455 27.1217 43.7697 26.7452 37.801C26.6749 36.6822 25.7448 35.806 24.6278 35.806C24.3288 35.806 24.0856 35.5629 24.0856 35.264ZM18.6499 45.1193H26.2797C27.2198 46.4943 28.3922 47.6951 29.7389 48.6678V53.3398C29.1241 53.3045 28.4995 53.4133 27.9182 53.6742L25.9565 54.5549C25.6208 54.7057 25.3149 54.9139 25.0504 55.167L17.4321 57.4031V46.3373C17.4323 45.6656 17.9784 45.1193 18.6499 45.1193ZM9.6231 69.5539C9.6231 65.5461 12.3088 61.9588 16.1545 60.8299L16.3928 60.7599C16.3983 60.7584 16.4036 60.7568 16.409 60.7553L24.2073 58.4664C24.3592 58.9416 24.6219 59.3883 24.9975 59.7646V59.7644L30.4303 65.2055C30.4352 65.2103 30.4401 65.2152 30.445 65.2199C31.0932 65.851 31.9329 66.1701 32.7752 66.1701C33.0006 66.1701 33.2258 66.1443 33.4479 66.0986L34.6456 68.1555L31.493 85.9412H19.5762V81.2949C19.5762 80.4861 18.9208 79.8307 18.112 79.8307C17.3032 79.8307 16.6477 80.4861 16.6477 81.2949V85.9412H9.6231V69.5539ZM89.8077 97.0717H10.1924C6.19907 97.0717 2.95005 93.8228 2.95005 89.8293C2.95005 89.3 3.38052 88.8695 3.90981 88.8695H33.9065C34.5821 92.0451 37.4075 94.4348 40.7815 94.4348H59.2184C62.5924 94.4348 65.4178 92.0451 66.0934 88.8695H96.0901C96.6194 88.8695 97.0499 89.3 97.0499 89.8293C97.05 93.8226 93.801 97.0717 89.8077 97.0717Z" fill="black"/>
</g>
<defs>
<clipPath id="clip0">
<rect width="100" height="100" fill="white"/>
</clipPath>
</defs>
</svg>
