<svg width="97" height="85" viewBox="0 0 97 85" fill="none" xmlns="http://www.w3.org/2000/svg">
<path d="M91.4062 0H5.46875C4.01884 0.0016026 2.62877 0.578287 1.60353 1.60353C0.578288 2.62877 0.0016026 4.01884 0 5.46875V66.4062C0.0016026 67.8562 0.578288 69.2462 1.60353 70.2715C2.62877 71.2967 4.01884 71.8734 5.46875 71.875H36.7539L34.8789 76.5625H28.125C27.7106 76.5625 27.3132 76.7271 27.0201 77.0201C26.7271 77.3132 26.5625 77.7106 26.5625 78.125V82.8125C26.5625 83.2269 26.7271 83.6243 27.0201 83.9174C27.3132 84.2104 27.7106 84.375 28.125 84.375H68.75C69.1644 84.375 69.5618 84.2104 69.8549 83.9174C70.1479 83.6243 70.3125 83.2269 70.3125 82.8125V78.125C70.3125 77.7106 70.1479 77.3132 69.8549 77.0201C69.5618 76.7271 69.1644 76.5625 68.75 76.5625H61.9961L60.1211 71.875H91.4062C92.8562 71.8734 94.2462 71.2967 95.2715 70.2715C96.2967 69.2462 96.8734 67.8562 96.875 66.4062V5.46875C96.8734 4.01884 96.2967 2.62877 95.2715 1.60353C94.2462 0.578287 92.8562 0.0016026 91.4062 0ZM67.1875 79.6875V81.25H29.6875V79.6875H67.1875ZM38.2461 76.5625L40.1211 71.875H56.7539L58.6289 76.5625H38.2461ZM93.75 66.4062C93.7495 67.0277 93.5024 67.6235 93.063 68.063C92.6235 68.5024 92.0277 68.7495 91.4062 68.75H5.46875C4.84731 68.7495 4.25147 68.5024 3.81204 68.063C3.37261 67.6235 3.12552 67.0277 3.125 66.4062V64.0625H93.75V66.4062ZM93.75 60.9375H3.125V51.5625H93.75V60.9375ZM23.1152 23.4922C25.6426 23.4922 29.5488 23.0352 34.375 20.9941V26.5625C34.375 28.2201 33.7165 29.8098 32.5444 30.9819C31.3723 32.154 29.7826 32.8125 28.125 32.8125C26.4674 32.8125 24.8777 32.154 23.7056 30.9819C22.5335 29.8098 21.875 28.2201 21.875 26.5625V23.4531C22.2422 23.4766 22.6543 23.4922 23.1152 23.4922ZM21.875 20.3203V20.3125C21.8769 18.6555 22.5359 17.0668 23.7076 15.8951C24.8793 14.7234 26.468 14.0644 28.125 14.0625C30.5957 14.0625 32.7852 15.6328 33.791 17.8398C29.916 19.5664 26.7363 20.1387 24.668 20.3047C23.7388 20.3821 22.805 20.3873 21.875 20.3203V20.3203ZM29.6875 35.8047V37.5C29.6875 37.9144 29.5229 38.3118 29.2299 38.6049C28.9368 38.8979 28.5394 39.0625 28.125 39.0625C27.7106 39.0625 27.3132 38.8979 27.0201 38.6049C26.7271 38.3118 26.5625 37.9144 26.5625 37.5V35.8047C27.5966 35.9818 28.6534 35.9818 29.6875 35.8047ZM28.125 42.1875C29.0939 42.1863 30.0387 41.8853 30.8297 41.3258C31.6207 40.7663 32.2192 39.9757 32.543 39.0625H34.375C36.032 39.0644 37.6207 39.7234 38.7924 40.8951C39.9641 42.0668 40.6231 43.6555 40.625 45.3125V48.4375H37.5V46.875C37.5 46.4606 37.3354 46.0632 37.0424 45.7701C36.7493 45.4771 36.3519 45.3125 35.9375 45.3125C35.5231 45.3125 35.1257 45.4771 34.8326 45.7701C34.5396 46.0632 34.375 46.4606 34.375 46.875V48.4375H21.875V46.875C21.875 46.4606 21.7104 46.0632 21.4174 45.7701C21.1243 45.4771 20.7269 45.3125 20.3125 45.3125C19.8981 45.3125 19.5007 45.4771 19.2076 45.7701C18.9146 46.0632 18.75 46.4606 18.75 46.875V48.4375H15.625V45.3125C15.6269 43.6555 16.2859 42.0668 17.4576 40.8951C18.6293 39.7234 20.218 39.0644 21.875 39.0625H23.707C24.0308 39.9757 24.6293 40.7663 25.4203 41.3258C26.2113 41.8853 27.1561 42.1863 28.125 42.1875V42.1875ZM93.75 48.4375H43.75V45.3125C43.7474 42.8269 42.7588 40.4439 41.0012 38.6863C39.2436 36.9287 36.8606 35.9401 34.375 35.9375H32.8125V34.6758C34.2367 33.8533 35.4195 32.6706 36.2422 31.2466C37.065 29.8225 37.4988 28.2071 37.5 26.5625V20.3125C37.5 20.2676 37.498 20.2246 37.4941 20.1797C37.4131 17.7888 36.4429 15.5142 34.7734 13.8008C33.9168 12.8983 32.8858 12.1792 31.743 11.687C30.6002 11.1948 29.3693 10.9398 28.125 10.9375C25.6394 10.9401 23.2564 11.9287 21.4988 13.6863C19.7412 15.4439 18.7526 17.8269 18.75 20.3125V26.5625C18.7512 28.2071 19.185 29.8225 20.0078 31.2466C20.8305 32.6706 22.0133 33.8533 23.4375 34.6758V35.9375H21.875C19.3894 35.9401 17.0064 36.9287 15.2488 38.6863C13.4912 40.4439 12.5026 42.8269 12.5 45.3125V48.4375H3.125V5.46875C3.12552 4.84731 3.37261 4.25147 3.81204 3.81204C4.25147 3.37261 4.84731 3.12552 5.46875 3.125H91.4062C92.0277 3.12552 92.6235 3.37261 93.063 3.81204C93.5024 4.25147 93.7495 4.84731 93.75 5.46875V48.4375Z" fill="black"/>
<path d="M45.3125 32.8125H50V37.5C50 37.809 50.0916 38.1111 50.2633 38.3681C50.435 38.6251 50.679 38.8253 50.9646 38.9436C51.2501 39.0619 51.5642 39.0928 51.8673 39.0325C52.1704 38.9722 52.4489 38.8234 52.6674 38.6049L58.4596 32.8125H82.8125C83.2269 32.8125 83.6243 32.6479 83.9174 32.3549C84.2104 32.0618 84.375 31.6644 84.375 31.25V6.25C84.375 5.8356 84.2104 5.43817 83.9174 5.14515C83.6243 4.85212 83.2269 4.6875 82.8125 4.6875H45.3125C44.8981 4.6875 44.5007 4.85212 44.2076 5.14515C43.9146 5.43817 43.75 5.8356 43.75 6.25V31.25C43.75 31.6644 43.9146 32.0618 44.2076 32.3549C44.5007 32.6479 44.8981 32.8125 45.3125 32.8125ZM46.875 7.8125H81.25V29.6875H57.8125C57.6073 29.6875 57.4041 29.7279 57.2145 29.8064C57.025 29.8849 56.8527 30 56.7076 30.1451L53.125 33.7277V31.25C53.125 30.8356 52.9604 30.4382 52.6674 30.1451C52.3743 29.8521 51.9769 29.6875 51.5625 29.6875H46.875V7.8125Z" fill="black"/>
<path d="M70.3125 54.6875H37.5C37.5 54.2731 37.3354 53.8757 37.0424 53.5826C36.7493 53.2896 36.3519 53.125 35.9375 53.125C35.5231 53.125 35.1257 53.2896 34.8326 53.5826C34.5396 53.8757 34.375 54.2731 34.375 54.6875H26.5625C26.1481 54.6875 25.7507 54.8521 25.4576 55.1451C25.1646 55.4382 25 55.8356 25 56.25C25 56.6644 25.1646 57.0618 25.4576 57.3549C25.7507 57.6479 26.1481 57.8125 26.5625 57.8125H34.375C34.375 58.2269 34.5396 58.6243 34.8326 58.9174C35.1257 59.2104 35.5231 59.375 35.9375 59.375C36.3519 59.375 36.7493 59.2104 37.0424 58.9174C37.3354 58.6243 37.5 58.2269 37.5 57.8125H70.3125C70.7269 57.8125 71.1243 57.6479 71.4174 57.3549C71.7104 57.0618 71.875 56.6644 71.875 56.25C71.875 55.8356 71.7104 55.4382 71.4174 55.1451C71.1243 54.8521 70.7269 54.6875 70.3125 54.6875Z" fill="black"/>
</svg>
