<svg width="100" height="100" viewBox="0 0 100 100" fill="none" xmlns="http://www.w3.org/2000/svg">
<g clip-path="url(#clip0)">
<path d="M81.1539 87.0968L77.42 75.8936C76.1152 71.9823 72.7862 69.0952 68.7281 68.3565L57.9491 66.3952V65.5597C59.8249 64.471 61.4571 63.0145 62.7571 61.2903H66.0136C68.6813 61.2903 70.8523 59.1194 70.8523 56.4516V37.0968C70.8523 25.5355 61.4458 16.129 49.8846 16.129C38.3233 16.129 28.9168 25.5355 28.9168 37.0968V48.3871C28.9168 51.4968 31.1281 54.0984 34.0604 54.7048C34.9652 59.3403 37.862 63.2629 41.82 65.5597V66.3952L31.0394 68.3565C26.9829 69.0952 23.6523 71.9823 22.3491 75.8936L21.7039 77.8306L16.2104 72.3371C15.5813 71.7081 15.5813 70.6839 16.2104 70.0548L22.5813 63.6855L10.6233 51.7274L3.42327 58.9274C1.29101 61.0597 0.116821 63.8952 0.116821 66.9113C0.116821 69.9274 1.29101 72.7613 3.42327 74.8935L25.2217 96.6919C27.3539 98.8242 30.1894 100 33.2055 100C36.2217 100 39.0555 98.8242 41.1378 96.7403L48.9942 89.5419L46.5442 87.0968H81.1539ZM67.6265 56.4516C67.6265 57.3419 66.9023 58.0645 66.0136 58.0645H64.6571C65.1249 56.9984 65.4797 55.8742 65.7088 54.7048C66.3991 54.5613 67.0346 54.2871 67.6265 53.9419V56.4516ZM66.0136 51.1645V45.6097C66.9733 46.1694 67.6265 47.1984 67.6265 48.3871C67.6265 49.5758 66.9733 50.6048 66.0136 51.1645ZM33.7555 51.1645C32.7958 50.6048 32.1426 49.5758 32.1426 48.3871C32.1426 47.1984 32.7958 46.1694 33.7555 45.6097V51.1645ZM33.7555 40.3226V42.1645C33.1813 42.3145 32.6426 42.5403 32.1426 42.8323V37.0968C32.1426 27.3145 40.1023 19.3548 49.8846 19.3548C59.6668 19.3548 67.6265 27.3145 67.6265 37.0968V42.8323C67.1265 42.5403 66.5878 42.3129 66.0136 42.1645V40.3226H64.4007C59.6313 40.3226 55.1475 38.4645 51.7733 35.0919L49.8846 33.2032L47.9958 35.0919C44.6217 38.4645 40.1378 40.3226 35.3684 40.3226H33.7555ZM36.9813 51.6129V43.4871C41.8249 43.1226 46.341 41.1242 49.8846 37.7548C53.4281 41.1242 57.9442 43.1242 62.7878 43.4871V51.6129C62.7878 53.9645 62.1459 56.1645 61.0426 58.0645H49.8846V61.2903H58.391C56.1168 63.2919 53.1442 64.5161 49.8846 64.5161C42.77 64.5161 36.9813 58.7274 36.9813 51.6129ZM54.7233 66.9984V67.0742L49.8846 71.9129L45.0458 67.0742V66.9984C46.5749 67.479 48.1991 67.7419 49.8846 67.7419C51.57 67.7419 53.1942 67.479 54.7233 66.9984ZM25.4071 76.9129C26.3378 74.1194 28.7168 72.0565 31.6152 71.5274L42.8894 69.479L49.8846 76.4742L56.8781 69.4806L68.1507 71.529C71.0491 72.0581 73.4281 74.1194 74.3588 76.9145L76.6797 83.871H43.3184L37.0362 77.5887L30.0555 83.9032C29.4475 84.5145 28.3846 84.5145 27.7749 83.9032L24.2523 80.3806L25.4071 76.9129ZM10.6217 56.2887L18.0184 63.6855L16.2668 65.4371L8.87005 58.0403L10.6217 56.2887ZM38.9039 94.4145C37.3813 95.9339 35.3555 96.7742 33.2023 96.7742C31.0491 96.7742 29.0233 95.9339 27.4991 94.4113L5.70069 72.6145C4.17811 71.0919 3.3394 69.0661 3.3394 66.9129C3.3394 64.7581 4.17811 62.7323 5.70069 61.2097L6.58779 60.3226L13.9846 67.7194L13.9265 67.7774C12.041 69.6645 12.041 72.7339 13.9265 74.621L25.4926 86.1871C26.4071 87.1 27.6217 87.6048 28.9152 87.6048C30.2088 87.6048 31.4233 87.1016 32.2781 86.2436L32.3991 86.1355L39.8297 93.5661L38.9039 94.4145ZM42.2104 91.3823L34.7959 83.9677L36.9265 82.0419L44.3281 89.4436L42.2104 91.3823Z" fill="black"/>
<path d="M95.0459 0H72.4653C69.7976 0 67.6266 2.17097 67.6266 4.83871V17.7419C67.6266 20.4097 69.7976 22.5806 72.4653 22.5806H76.7734L75.1056 32.3081L90.6701 22.5806H95.0459C97.7137 22.5806 99.8847 20.4097 99.8847 17.7419V4.83871C99.8847 2.17097 97.7137 0 95.0459 0ZM96.6588 17.7419C96.6588 18.6306 95.9347 19.3548 95.0459 19.3548H89.7443L79.5008 25.7565L80.5992 19.3548H72.4653C71.5766 19.3548 70.8524 18.6306 70.8524 17.7419V4.83871C70.8524 3.95 71.5766 3.22581 72.4653 3.22581H95.0459C95.9347 3.22581 96.6588 3.95 96.6588 4.83871V17.7419Z" fill="black"/>
<path d="M93.4331 6.4516H74.0782V9.67741H93.4331V6.4516Z" fill="black"/>
<path d="M86.9815 12.9032H74.0782V16.129H86.9815V12.9032Z" fill="black"/>
<path d="M93.4331 12.9032H90.2073V16.129H93.4331V12.9032Z" fill="black"/>
<path d="M49.8847 4.83868C28.8105 4.83868 10.6573 19.4161 5.93794 39.75L2.88149 34.6548L0.115356 36.3145L5.78471 45.7613L15.2315 40.0919L13.5718 37.3258L9.20084 39.9484C13.7718 21.3467 30.4992 8.06449 49.8847 8.06449C54.1218 8.06449 58.3025 8.69352 62.3105 9.93546L63.2654 6.85481C58.9476 5.5161 54.446 4.83868 49.8847 4.83868Z" fill="black"/>
<path d="M99.1007 35.7129L89.6539 30.0436L83.9861 39.492L86.7523 41.1516L89.5749 36.4468C91.0603 40.7936 91.82 45.3404 91.82 50C91.82 59.592 88.4974 68.9694 82.4668 76.4033L84.9716 78.4355C91.4684 70.4291 95.0458 60.3291 95.0458 50C95.0458 45.0662 94.2507 40.2484 92.7007 35.6355L97.441 38.4791L99.1007 35.7129Z" fill="black"/>
</g>
<defs>
<clipPath id="clip0">
<rect width="100" height="100" fill="white"/>
</clipPath>
</defs>
</svg>
