<svg width="13" height="13" viewBox="0 0 13 13" fill="none" xmlns="http://www.w3.org/2000/svg">
<path d="M6.50501 0.245605C3.11718 0.245605 0.491699 2.7217 0.491699 6.06614C0.491699 7.81543 1.21049 9.32712 2.38049 10.3714C2.58251 10.5531 2.54089 10.6583 2.57525 11.7802C2.57795 11.8588 2.59984 11.9355 2.63901 12.0037C2.67818 12.0719 2.73343 12.1295 2.79995 12.1714C2.86647 12.2133 2.94224 12.2383 3.02064 12.2442C3.09905 12.2502 3.17771 12.2368 3.24976 12.2053C4.52984 11.6416 4.5463 11.5971 4.76331 11.6561C8.47194 12.6769 12.4917 10.3034 12.4917 6.06614C12.4917 2.7217 9.89307 0.245605 6.50501 0.245605ZM10.1157 4.72479L8.34952 7.52098C8.28283 7.62612 8.19514 7.71636 8.09194 7.78603C7.98875 7.8557 7.87228 7.90331 7.74983 7.92586C7.62738 7.94842 7.5016 7.94544 7.38035 7.91711C7.25911 7.88878 7.14503 7.83571 7.04525 7.76123L5.64009 6.70948C5.57727 6.66237 5.50087 6.6369 5.42234 6.6369C5.34382 6.6369 5.26742 6.66237 5.2046 6.70948L3.30855 8.14762C3.05549 8.33949 2.72404 8.03633 2.8946 7.76849L4.66073 4.9723C4.7274 4.86713 4.81508 4.77686 4.91827 4.70717C5.02146 4.63748 5.13794 4.58986 5.2604 4.5673C5.38286 4.54474 5.50866 4.54773 5.62991 4.57608C5.75116 4.60443 5.86524 4.65753 5.96501 4.73204L7.36968 5.78355C7.4325 5.83067 7.5089 5.85613 7.58743 5.85613C7.66595 5.85613 7.74235 5.83067 7.80517 5.78355L9.70218 4.34686C9.95476 4.15379 10.2862 4.45671 10.1157 4.72479Z" fill="#B33F25"/>
</svg>
